COMMENT @(#)90	1.1  src/bos/usr/lpp/jls/fonts/RomanKn23.bdf, fontKJI, bos411, 9428A410j 2/24/94 10:18:19
COMMENT
COMMENT   COMPONENT_NAME: fontKJI
COMMENT
COMMENT   FUNCTIONS: none
COMMENT
COMMENT   ORIGINS: 27
COMMENT
COMMENT   IBM CONFIDENTIAL -- (IBM Confidential Restricted when
COMMENT   combined with the aggregated modules for this product)
COMMENT                    SOURCE MATERIALS
COMMENT
COMMENT   (C) COPYRIGHT International Business Machines Corp. 1991,1993
COMMENT   All Rights Reserved
COMMENT   US Government Users Restricted Rights - Use, duplication or
COMMENT   disclosure restricted by GSA ADP Schedule Contract with IBM Corp.
COMMENT
COMMENT
STARTFONT 2.1
FONT -IBM_AIX-Mincho-Medium-R-Normal--35-230-100-100-M-170-JISX0201.1976-0
SIZE 17 100 100
FONTBOUNDINGBOX 17 35 0 -1
STARTPROPERTIES 23
FONTNAME_REGISTRY "-"
FOUNDRY "IBM_AIX"
FAMILY_NAME "Mincho"
WEIGHT_NAME "Medium"
SLANT "R"
SETWIDTH_NAME "Normal"
ADD_STYLE_NAME ""
PIXEL_SIZE 35
POINT_SIZE 230
RESOLUTION_X 100
RESOLUTION_Y 100
SPACING "M"
AVERAGE_WIDTH 170
CHARSET_REGISTRY "JISX0201.1976"
CHARSET_ENCODING "0"
FONT_ASCENT 34
FONT_DESCENT 1
DEFAULT_CHAR 0
CAP_HEIGHT 35
CHARSET_COLLECTIONS ""
COPYRIGHT "Copyright 1991 by IBM."
_IBM_AIX_CODESET "AIXstdNLS"
_IBM_AIX_SINGLEBYTE_CODEPAGE_SHIFTS ""
ENDPROPERTIES
CHARS 191
STARTCHAR 0
ENCODING 0
SWIDTH 17 0
DWIDTH 17 0
BBX 17 35 0 -1
BITMAP
000000
000000
000000
000000
000000
000000
000000
000000
000000
000000
000000
000000
000000
000000
000000
000000
000000
000000
000000
000000
000000
000000
000000
000000
000000
000000
000000
000000
000000
000000
000000
000000
000000
000000
000000
ENDCHAR
STARTCHAR 1
ENCODING 1
SWIDTH 17 0
DWIDTH 17 0
BBX 17 35 0 -1
BITMAP
000000
000000
000000
000000
000000
000000
000000
000000
000000
000000
000000
000000
000000
000000
000000
000000
000000
000000
000000
000000
000000
000000
000000
000000
000000
000000
000000
000000
000000
000000
000000
000000
000000
000000
000000
ENDCHAR
STARTCHAR 2
ENCODING 2
SWIDTH 17 0
DWIDTH 17 0
BBX 17 35 0 -1
BITMAP
000000
000000
000000
000000
000000
000000
000000
000000
000000
000000
000000
000000
000000
000000
000000
000000
000000
000000
000000
000000
000000
000000
000000
000000
000000
000000
000000
000000
000000
000000
000000
000000
000000
000000
000000
ENDCHAR
STARTCHAR 3
ENCODING 3
SWIDTH 17 0
DWIDTH 17 0
BBX 17 35 0 -1
BITMAP
000000
000000
000000
000000
000000
000000
000000
000000
000000
000000
000000
000000
000000
000000
000000
000000
000000
000000
000000
000000
000000
000000
000000
000000
000000
000000
000000
000000
000000
000000
000000
000000
000000
000000
000000
ENDCHAR
STARTCHAR 4
ENCODING 4
SWIDTH 17 0
DWIDTH 17 0
BBX 17 35 0 -1
BITMAP
000000
000000
000000
000000
000000
000000
000000
000000
000000
000000
000000
000000
000000
000000
000000
000000
000000
000000
000000
000000
000000
000000
000000
000000
000000
000000
000000
000000
000000
000000
000000
000000
000000
000000
000000
ENDCHAR
STARTCHAR 5
ENCODING 5
SWIDTH 17 0
DWIDTH 17 0
BBX 17 35 0 -1
BITMAP
000000
000000
000000
000000
000000
000000
000000
000000
000000
000000
000000
000000
000000
000000
000000
000000
000000
000000
000000
000000
000000
000000
000000
000000
000000
000000
000000
000000
000000
000000
000000
000000
000000
000000
000000
ENDCHAR
STARTCHAR 6
ENCODING 6
SWIDTH 17 0
DWIDTH 17 0
BBX 17 35 0 -1
BITMAP
000000
000000
000000
000000
000000
000000
000000
000000
000000
000000
000000
000000
000000
000000
000000
000000
000000
000000
000000
000000
000000
000000
000000
000000
000000
000000
000000
000000
000000
000000
000000
000000
000000
000000
000000
ENDCHAR
STARTCHAR 7
ENCODING 7
SWIDTH 17 0
DWIDTH 17 0
BBX 17 35 0 -1
BITMAP
000000
000000
000000
000000
000000
000000
000000
000000
000000
000000
000000
000000
000000
000000
000000
000000
000000
000000
000000
000000
000000
000000
000000
000000
000000
000000
000000
000000
000000
000000
000000
000000
000000
000000
000000
ENDCHAR
STARTCHAR 8
ENCODING 8
SWIDTH 17 0
DWIDTH 17 0
BBX 17 35 0 -1
BITMAP
000000
000000
000000
000000
000000
000000
000000
000000
000000
000000
000000
000000
000000
000000
000000
000000
000000
000000
000000
000000
000000
000000
000000
000000
000000
000000
000000
000000
000000
000000
000000
000000
000000
000000
000000
ENDCHAR
STARTCHAR 9
ENCODING 9
SWIDTH 17 0
DWIDTH 17 0
BBX 17 35 0 -1
BITMAP
000000
000000
000000
000000
000000
000000
000000
000000
000000
000000
000000
000000
000000
000000
000000
000000
000000
000000
000000
000000
000000
000000
000000
000000
000000
000000
000000
000000
000000
000000
000000
000000
000000
000000
000000
ENDCHAR
STARTCHAR a
ENCODING 10
SWIDTH 17 0
DWIDTH 17 0
BBX 17 35 0 -1
BITMAP
000000
000000
000000
000000
000000
000000
000000
000000
000000
000000
000000
000000
000000
000000
000000
000000
000000
000000
000000
000000
000000
000000
000000
000000
000000
000000
000000
000000
000000
000000
000000
000000
000000
000000
000000
ENDCHAR
STARTCHAR b
ENCODING 11
SWIDTH 17 0
DWIDTH 17 0
BBX 17 35 0 -1
BITMAP
000000
000000
000000
000000
000000
000000
000000
000000
000000
000000
000000
000000
000000
000000
000000
000000
000000
000000
000000
000000
000000
000000
000000
000000
000000
000000
000000
000000
000000
000000
000000
000000
000000
000000
000000
ENDCHAR
STARTCHAR c
ENCODING 12
SWIDTH 17 0
DWIDTH 17 0
BBX 17 35 0 -1
BITMAP
000000
000000
000000
000000
000000
000000
000000
000000
000000
000000
000000
000000
000000
000000
000000
000000
000000
000000
000000
000000
000000
000000
000000
000000
000000
000000
000000
000000
000000
000000
000000
000000
000000
000000
000000
ENDCHAR
STARTCHAR d
ENCODING 13
SWIDTH 17 0
DWIDTH 17 0
BBX 17 35 0 -1
BITMAP
000000
000000
000000
000000
000000
000000
000000
000000
000000
000000
000000
000000
000000
000000
000000
000000
000000
000000
000000
000000
000000
000000
000000
000000
000000
000000
000000
000000
000000
000000
000000
000000
000000
000000
000000
ENDCHAR
STARTCHAR e
ENCODING 14
SWIDTH 17 0
DWIDTH 17 0
BBX 17 35 0 -1
BITMAP
000000
000000
000000
000000
000000
000000
000000
000000
000000
000000
000000
000000
000000
000000
000000
000000
000000
000000
000000
000000
000000
000000
000000
000000
000000
000000
000000
000000
000000
000000
000000
000000
000000
000000
000000
ENDCHAR
STARTCHAR f
ENCODING 15
SWIDTH 17 0
DWIDTH 17 0
BBX 17 35 0 -1
BITMAP
000000
000000
000000
000000
000000
000000
000000
000000
000000
000000
000000
000000
000000
000000
000000
000000
000000
000000
000000
000000
000000
000000
000000
000000
000000
000000
000000
000000
000000
000000
000000
000000
000000
000000
000000
ENDCHAR
STARTCHAR 10
ENCODING 16
SWIDTH 17 0
DWIDTH 17 0
BBX 17 35 0 -1
BITMAP
000000
000000
000000
000000
000000
000000
000000
000000
000000
000000
000000
000000
000000
000000
000000
000000
000000
000000
000000
000000
000000
000000
000000
000000
000000
000000
000000
000000
000000
000000
000000
000000
000000
000000
000000
ENDCHAR
STARTCHAR 11
ENCODING 17
SWIDTH 17 0
DWIDTH 17 0
BBX 17 35 0 -1
BITMAP
000000
000000
000000
000000
000000
000000
000000
000000
000000
000000
000000
000000
000000
000000
000000
000000
000000
000000
000000
000000
000000
000000
000000
000000
000000
000000
000000
000000
000000
000000
000000
000000
000000
000000
000000
ENDCHAR
STARTCHAR 12
ENCODING 18
SWIDTH 17 0
DWIDTH 17 0
BBX 17 35 0 -1
BITMAP
000000
000000
000000
000000
000000
000000
000000
000000
000000
000000
000000
000000
000000
000000
000000
000000
000000
000000
000000
000000
000000
000000
000000
000000
000000
000000
000000
000000
000000
000000
000000
000000
000000
000000
000000
ENDCHAR
STARTCHAR 13
ENCODING 19
SWIDTH 17 0
DWIDTH 17 0
BBX 17 35 0 -1
BITMAP
000000
000000
000000
000000
000000
000000
000000
000000
000000
000000
000000
000000
000000
000000
000000
000000
000000
000000
000000
000000
000000
000000
000000
000000
000000
000000
000000
000000
000000
000000
000000
000000
000000
000000
000000
ENDCHAR
STARTCHAR 14
ENCODING 20
SWIDTH 17 0
DWIDTH 17 0
BBX 17 35 0 -1
BITMAP
000000
000000
000000
000000
000000
000000
000000
000000
000000
000000
000000
000000
000000
000000
000000
000000
000000
000000
000000
000000
000000
000000
000000
000000
000000
000000
000000
000000
000000
000000
000000
000000
000000
000000
000000
ENDCHAR
STARTCHAR 15
ENCODING 21
SWIDTH 17 0
DWIDTH 17 0
BBX 17 35 0 -1
BITMAP
000000
000000
000000
000000
000000
000000
000000
000000
000000
000000
000000
000000
000000
000000
000000
000000
000000
000000
000000
000000
000000
000000
000000
000000
000000
000000
000000
000000
000000
000000
000000
000000
000000
000000
000000
ENDCHAR
STARTCHAR 16
ENCODING 22
SWIDTH 17 0
DWIDTH 17 0
BBX 17 35 0 -1
BITMAP
000000
000000
000000
000000
000000
000000
000000
000000
000000
000000
000000
000000
000000
000000
000000
000000
000000
000000
000000
000000
000000
000000
000000
000000
000000
000000
000000
000000
000000
000000
000000
000000
000000
000000
000000
ENDCHAR
STARTCHAR 17
ENCODING 23
SWIDTH 17 0
DWIDTH 17 0
BBX 17 35 0 -1
BITMAP
000000
000000
000000
000000
000000
000000
000000
000000
000000
000000
000000
000000
000000
000000
000000
000000
000000
000000
000000
000000
000000
000000
000000
000000
000000
000000
000000
000000
000000
000000
000000
000000
000000
000000
000000
ENDCHAR
STARTCHAR 18
ENCODING 24
SWIDTH 17 0
DWIDTH 17 0
BBX 17 35 0 -1
BITMAP
000000
000000
000000
000000
000000
000000
000000
000000
000000
000000
000000
000000
000000
000000
000000
000000
000000
000000
000000
000000
000000
000000
000000
000000
000000
000000
000000
000000
000000
000000
000000
000000
000000
000000
000000
ENDCHAR
STARTCHAR 19
ENCODING 25
SWIDTH 17 0
DWIDTH 17 0
BBX 17 35 0 -1
BITMAP
000000
000000
000000
000000
000000
000000
000000
000000
000000
000000
000000
000000
000000
000000
000000
000000
000000
000000
000000
000000
000000
000000
000000
000000
000000
000000
000000
000000
000000
000000
000000
000000
000000
000000
000000
ENDCHAR
STARTCHAR 1a
ENCODING 26
SWIDTH 17 0
DWIDTH 17 0
BBX 17 35 0 -1
BITMAP
000000
000000
000000
000000
000000
000000
000000
000000
000000
000000
000000
000000
000000
000000
000000
000000
000000
000000
000000
000000
000000
000000
000000
000000
000000
000000
000000
000000
000000
000000
000000
000000
000000
000000
000000
ENDCHAR
STARTCHAR 1b
ENCODING 27
SWIDTH 17 0
DWIDTH 17 0
BBX 17 35 0 -1
BITMAP
000000
000000
000000
000000
000000
000000
000000
000000
000000
000000
000000
000000
000000
000000
000000
000000
000000
000000
000000
000000
000000
000000
000000
000000
000000
000000
000000
000000
000000
000000
000000
000000
000000
000000
000000
ENDCHAR
STARTCHAR 1c
ENCODING 28
SWIDTH 17 0
DWIDTH 17 0
BBX 17 35 0 -1
BITMAP
000000
000000
000000
000000
000000
000000
000000
000000
000000
000000
000000
000000
000000
000000
000000
000000
000000
000000
000000
000000
000000
000000
000000
000000
000000
000000
000000
000000
000000
000000
000000
000000
000000
000000
000000
ENDCHAR
STARTCHAR 1d
ENCODING 29
SWIDTH 17 0
DWIDTH 17 0
BBX 17 35 0 -1
BITMAP
000000
000000
000000
000000
000000
000000
000000
000000
000000
000000
000000
000000
000000
000000
000000
000000
000000
000000
000000
000000
000000
000000
000000
000000
000000
000000
000000
000000
000000
000000
000000
000000
000000
000000
000000
ENDCHAR
STARTCHAR 1e
ENCODING 30
SWIDTH 17 0
DWIDTH 17 0
BBX 17 35 0 -1
BITMAP
000000
000000
000000
000000
000000
000000
000000
000000
000000
000000
000000
000000
000000
000000
000000
000000
000000
000000
000000
000000
000000
000000
000000
000000
000000
000000
000000
000000
000000
000000
000000
000000
000000
000000
000000
ENDCHAR
STARTCHAR 1f
ENCODING 31
SWIDTH 17 0
DWIDTH 17 0
BBX 17 35 0 -1
BITMAP
000000
000000
000000
000000
000000
000000
000000
000000
000000
000000
000000
000000
000000
000000
000000
000000
000000
000000
000000
000000
000000
000000
000000
000000
000000
000000
000000
000000
000000
000000
000000
000000
000000
000000
000000
ENDCHAR
STARTCHAR 0020
ENCODING 32
SWIDTH 17 0
DWIDTH 17 0
BBX 17 35 0 -1
BITMAP
000000
000000
000000
000000
000000
000000
000000
000000
000000
000000
000000
000000
000000
000000
000000
000000
000000
000000
000000
000000
000000
000000
000000
000000
000000
000000
000000
000000
000000
000000
000000
000000
000000
000000
000000
ENDCHAR
STARTCHAR 0021
ENCODING 33
SWIDTH 17 0
DWIDTH 17 0
BBX 17 35 0 -1
BITMAP
000000
000000
000000
000000
00c000
01e000
01e000
01e000
01e000
01e000
01e000
01e000
01e000
01e000
01e000
01e000
00c000
00c000
00c000
00c000
00c000
00c000
00c000
00c000
000000
000000
000000
00c000
01e000
01e000
01e000
00c000
000000
000000
000000
ENDCHAR
STARTCHAR 0022
ENCODING 34
SWIDTH 17 0
DWIDTH 17 0
BBX 17 35 0 -1
BITMAP
000000
000000
061800
0f3c00
0f3c00
0f3c00
061800
061800
061800
000000
000000
000000
000000
000000
000000
000000
000000
000000
000000
000000
000000
000000
000000
000000
000000
000000
000000
000000
000000
000000
000000
000000
000000
000000
000000
ENDCHAR
STARTCHAR 0023
ENCODING 35
SWIDTH 17 0
DWIDTH 17 0
BBX 17 35 0 -1
BITMAP
000000
000000
000000
000000
070e00
070e00
070e00
070e00
070e00
070e00
070e00
070e00
7fff80
7fff80
0e1c00
0e1c00
0e1c00
0e1c00
0e1c00
0e1c00
0e1c00
7fff80
7fff80
1c3800
1c3800
1c3800
1c3800
1c3800
1c3800
1c3800
1c3800
1c3800
000000
000000
000000
ENDCHAR
STARTCHAR 0024
ENCODING 36
SWIDTH 17 0
DWIDTH 17 0
BBX 17 35 0 -1
BITMAP
000000
000000
00c000
00c000
00c000
03f000
0ffc00
1ede00
1ccf00
38cf00
38cf00
38c600
38c000
1cc000
1fc000
0fc000
07e000
01f800
00fc00
00fe00
00cf00
00c700
30c380
78c380
78c380
78c380
70c380
38c700
3edf00
1ffe00
07f800
00c000
00c000
00c000
000000
ENDCHAR
STARTCHAR 0025
ENCODING 37
SWIDTH 17 0
DWIDTH 17 0
BBX 17 35 0 -1
BITMAP
000000
000000
000000
000180
0c0180
3f0300
330300
738600
738600
738c00
738c00
739800
739800
73b000
333000
3f6000
0c6000
00c000
00c000
018c00
01bf00
033300
037380
067380
067380
0c7380
0c7380
187380
187380
303300
303f00
600c00
600000
000000
000000
ENDCHAR
STARTCHAR 0026
ENCODING 38
SWIDTH 17 0
DWIDTH 17 0
BBX 17 35 0 -1
BITMAP
000000
000000
000000
000000
0f8000
3fe000
38e000
707000
707000
707000
707000
38e000
38e000
1dc000
1fc000
0f8000
0f1f80
1f9f80
1b8600
39c600
39c600
70e600
70e600
707600
707600
707c00
703c00
703c80
387c80
3cff80
1fef80
078700
000000
000000
000000
ENDCHAR
STARTCHAR 0027
ENCODING 39
SWIDTH 17 0
DWIDTH 17 0
BBX 17 35 0 -1
BITMAP
000000
000000
00c000
01e000
01e000
01e000
00c000
00c000
00c000
000000
000000
000000
000000
000000
000000
000000
000000
000000
000000
000000
000000
000000
000000
000000
000000
000000
000000
000000
000000
000000
000000
000000
000000
000000
000000
ENDCHAR
STARTCHAR 0028
ENCODING 40
SWIDTH 17 0
DWIDTH 17 0
BBX 17 35 0 -1
BITMAP
000000
000000
000400
000c00
001800
003800
003000
007000
006000
00e000
00c000
01c000
01c000
018000
018000
038000
038000
038000
038000
038000
038000
018000
018000
01c000
01c000
00c000
00e000
006000
007000
003000
003800
001800
000c00
000400
000000
ENDCHAR
STARTCHAR 0029
ENCODING 41
SWIDTH 17 0
DWIDTH 17 0
BBX 17 35 0 -1
BITMAP
000000
000000
080000
0c0000
060000
070000
030000
038000
018000
01c000
00c000
00e000
00e000
006000
006000
007000
007000
007000
007000
007000
007000
006000
006000
00e000
00e000
00c000
01c000
018000
038000
030000
070000
060000
0c0000
080000
000000
ENDCHAR
STARTCHAR 002a
ENCODING 42
SWIDTH 17 0
DWIDTH 17 0
BBX 17 35 0 -1
BITMAP
000000
000000
000000
000000
000000
000000
000000
000000
000000
00c000
01e000
01e000
01e000
31e300
78c780
7ccf80
3edf00
07f800
00c000
07f800
3edf00
7ccf80
78c780
31e300
01e000
01e000
01e000
00c000
000000
000000
000000
000000
000000
000000
000000
ENDCHAR
STARTCHAR 002b
ENCODING 43
SWIDTH 17 0
DWIDTH 17 0
BBX 17 35 0 -1
BITMAP
000000
000000
000000
000000
000000
000000
000000
000000
000000
000000
000000
00c000
00c000
00c000
00c000
00c000
00c000
3fff00
3fff00
00c000
00c000
00c000
00c000
00c000
00c000
000000
000000
000000
000000
000000
000000
000000
000000
000000
000000
ENDCHAR
STARTCHAR 002c
ENCODING 44
SWIDTH 17 0
DWIDTH 17 0
BBX 17 35 0 -1
BITMAP
000000
000000
000000
000000
000000
000000
000000
000000
000000
000000
000000
000000
000000
000000
000000
000000
000000
000000
000000
000000
000000
000000
000000
000000
000000
000000
0e0000
1f0000
1f0000
1f0000
0f0000
070000
060000
0c0000
000000
ENDCHAR
STARTCHAR 002d
ENCODING 45
SWIDTH 17 0
DWIDTH 17 0
BBX 17 35 0 -1
BITMAP
000000
000000
000000
000000
000000
000000
000000
000000
000000
000000
000000
000000
000000
000000
000000
000000
000000
3fff00
3fff00
000000
000000
000000
000000
000000
000000
000000
000000
000000
000000
000000
000000
000000
000000
000000
000000
ENDCHAR
STARTCHAR 002e
ENCODING 46
SWIDTH 17 0
DWIDTH 17 0
BBX 17 35 0 -1
BITMAP
000000
000000
000000
000000
000000
000000
000000
000000
000000
000000
000000
000000
000000
000000
000000
000000
000000
000000
000000
000000
000000
000000
000000
000000
000000
000000
000000
0e0000
1f0000
1f0000
1f0000
0e0000
000000
000000
000000
ENDCHAR
STARTCHAR 002f
ENCODING 47
SWIDTH 17 0
DWIDTH 17 0
BBX 17 35 0 -1
BITMAP
000000
000000
000080
000180
000180
000300
000300
000600
000600
000c00
000c00
001800
001800
003000
003000
006000
006000
00c000
00c000
018000
018000
030000
030000
060000
060000
0c0000
0c0000
180000
180000
300000
300000
600000
600000
400000
000000
ENDCHAR
STARTCHAR 0030
ENCODING 48
SWIDTH 17 0
DWIDTH 17 0
BBX 17 35 0 -1
BITMAP
000000
000000
000000
000000
01c000
07f000
063000
0e3800
0c1800
1c1c00
1c1c00
180c00
380e00
380e00
380e00
380e00
380e00
380e00
380e00
380e00
380e00
380e00
380e00
380e00
180c00
1c1c00
1c1c00
0c1800
0e3800
063000
07f000
01c000
000000
000000
000000
ENDCHAR
STARTCHAR 0031
ENCODING 49
SWIDTH 17 0
DWIDTH 17 0
BBX 17 35 0 -1
BITMAP
000000
000000
000000
000000
00e000
03e000
0fe000
0ce000
00e000
00e000
00e000
00e000
00e000
00e000
00e000
00e000
00e000
00e000
00e000
00e000
00e000
00e000
00e000
00e000
00e000
00e000
00e000
00e000
00e000
00e000
0ffe00
0ffe00
000000
000000
000000
ENDCHAR
STARTCHAR 0032
ENCODING 50
SWIDTH 17 0
DWIDTH 17 0
BBX 17 35 0 -1
BITMAP
000000
000000
000000
000000
01e000
07f800
0f3c00
1c0e00
380e00
3c0700
3c0700
3c0700
180700
000700
000e00
000e00
001c00
003800
007000
00e000
01c000
038000
070000
060000
0e0080
1c0180
180180
380300
300700
7fff00
7ffe00
7ffe00
000000
000000
000000
ENDCHAR
STARTCHAR 0033
ENCODING 51
SWIDTH 17 0
DWIDTH 17 0
BBX 17 35 0 -1
BITMAP
000000
000000
000000
000000
03e000
0ff800
1e3c00
1c1c00
3c0e00
3c0e00
3c0e00
180e00
000c00
001c00
003800
00f000
03e000
03f000
003c00
001c00
000e00
000e00
000700
300700
780700
780700
780f00
380e00
381e00
1e7c00
0ff800
03e000
000000
000000
000000
ENDCHAR
STARTCHAR 0034
ENCODING 52
SWIDTH 17 0
DWIDTH 17 0
BBX 17 35 0 -1
BITMAP
000000
000000
000000
000000
003800
003800
007800
007800
00f800
00f800
00f800
01b800
01b800
033800
033800
063800
063800
0c3800
0c3800
183800
183800
303800
303800
7fff80
7fff80
003800
003800
003800
003800
003800
01fe00
01fe00
000000
000000
000000
ENDCHAR
STARTCHAR 0035
ENCODING 53
SWIDTH 17 0
DWIDTH 17 0
BBX 17 35 0 -1
BITMAP
000000
000000
000000
000000
1fff00
1fff00
1ffe00
180000
180000
180000
180000
180000
180000
180000
19e000
1ff800
1e1c00
180e00
100e00
000700
000700
000700
000700
000700
180700
3c0700
3c0700
3c0e00
380e00
1c1c00
0ff800
03e000
000000
000000
000000
ENDCHAR
STARTCHAR 0036
ENCODING 54
SWIDTH 17 0
DWIDTH 17 0
BBX 17 35 0 -1
BITMAP
000000
000000
000000
000000
00e000
03f800
07bc00
0e1e00
1c1e00
1c0c00
380000
380000
380000
780000
70e000
73f800
77fc00
7f1e00
7c0e00
780700
700700
700700
700700
700700
700700
700700
380e00
380e00
1c1e00
1e3c00
0ff800
03e000
000000
000000
000000
ENDCHAR
STARTCHAR 0037
ENCODING 55
SWIDTH 17 0
DWIDTH 17 0
BBX 17 35 0 -1
BITMAP
000000
000000
000000
000000
1fff00
1fff00
3fff00
380600
300600
700c00
600c00
601c00
401800
001800
003800
003000
007000
007000
00e000
00e000
00e000
01c000
01c000
01c000
01c000
038000
038000
038000
038000
038000
038000
010000
000000
000000
000000
ENDCHAR
STARTCHAR 0038
ENCODING 56
SWIDTH 17 0
DWIDTH 17 0
BBX 17 35 0 -1
BITMAP
000000
000000
000000
000000
03e000
0ff800
1e3c00
1c1c00
380e00
380e00
380e00
380e00
380e00
1c1c00
1e1c00
0fb800
07f000
0ff800
1e7c00
3c1e00
380e00
700700
700700
700700
700700
700700
780700
380e00
3c0e00
1e1c00
0ff800
03e000
000000
000000
000000
ENDCHAR
STARTCHAR 0039
ENCODING 57
SWIDTH 17 0
DWIDTH 17 0
BBX 17 35 0 -1
BITMAP
000000
000000
000000
000000
03e000
0ff800
1e3c00
3c1c00
380e00
380e00
700700
700700
700700
700700
700700
700700
700f00
381f00
3c7f00
1ff700
0fe700
038700
000f00
000e00
000e00
000e00
181c00
3c1c00
3c3800
1ef000
0fe000
038000
000000
000000
000000
ENDCHAR
STARTCHAR 003a
ENCODING 58
SWIDTH 17 0
DWIDTH 17 0
BBX 17 35 0 -1
BITMAP
000000
000000
000000
000000
000000
000000
000000
000000
01c000
03e000
03e000
03e000
01c000
000000
000000
000000
000000
000000
000000
000000
000000
000000
000000
01c000
03e000
03e000
03e000
01c000
000000
000000
000000
000000
000000
000000
000000
ENDCHAR
STARTCHAR 003b
ENCODING 59
SWIDTH 17 0
DWIDTH 17 0
BBX 17 35 0 -1
BITMAP
000000
000000
000000
000000
000000
000000
000000
000000
01c000
03e000
03e000
03e000
01c000
000000
000000
000000
000000
000000
000000
000000
000000
000000
000000
01c000
03e000
03e000
03e000
01e000
00e000
00c000
018000
000000
000000
000000
000000
ENDCHAR
STARTCHAR 003c
ENCODING 60
SWIDTH 17 0
DWIDTH 17 0
BBX 17 35 0 -1
BITMAP
000000
000000
000000
000000
000000
000000
000000
000000
000000
000000
000000
000300
000f00
003e00
00f800
03e000
0f8000
1e0000
1e0000
0f8000
03e000
00f800
003e00
000f00
000300
000000
000000
000000
000000
000000
000000
000000
000000
000000
000000
ENDCHAR
STARTCHAR 003d
ENCODING 61
SWIDTH 17 0
DWIDTH 17 0
BBX 17 35 0 -1
BITMAP
000000
000000
000000
000000
000000
000000
000000
000000
000000
000000
000000
000000
000000
000000
3fff00
3fff00
000000
000000
000000
3fff00
3fff00
000000
000000
000000
000000
000000
000000
000000
000000
000000
000000
000000
000000
000000
000000
ENDCHAR
STARTCHAR 003e
ENCODING 62
SWIDTH 17 0
DWIDTH 17 0
BBX 17 35 0 -1
BITMAP
000000
000000
000000
000000
000000
000000
000000
000000
000000
000000
000000
300000
3c0000
1f0000
07c000
01f000
007c00
001e00
001e00
007c00
01f000
07c000
1f0000
3c0000
300000
000000
000000
000000
000000
000000
000000
000000
000000
000000
000000
ENDCHAR
STARTCHAR 003f
ENCODING 63
SWIDTH 17 0
DWIDTH 17 0
BBX 17 35 0 -1
BITMAP
000000
000000
000000
000000
01e000
07f800
0e1c00
1c0e00
180600
3c0700
3e0700
3e0700
1c0700
000e00
000e00
001c00
003800
007000
006000
00c000
00c000
00c000
00c000
008000
000000
000000
000000
00c000
01e000
01e000
01e000
00c000
000000
000000
000000
ENDCHAR
STARTCHAR 0040
ENCODING 64
SWIDTH 17 0
DWIDTH 17 0
BBX 17 35 0 -1
BITMAP
000000
000000
000000
000000
000000
000000
000000
000000
01e000
07f800
1e1e00
180600
300300
31eb00
67fd80
673d80
6e1980
6e3980
6e3900
6e7b00
67fe00
33cc80
300180
180700
1e1e00
07f800
01e000
000000
000000
000000
000000
000000
000000
000000
000000
ENDCHAR
STARTCHAR 0041
ENCODING 65
SWIDTH 17 0
DWIDTH 17 0
BBX 17 35 0 -1
BITMAP
000000
000000
000000
000000
00c000
00c000
01e000
01e000
01e000
01e000
037000
037000
037000
037000
063800
063800
063800
063800
0c1c00
0c1c00
0c1c00
0ffc00
1ffe00
180e00
180e00
180e00
300700
300700
300700
300700
780f80
780f80
000000
000000
000000
ENDCHAR
STARTCHAR 0042
ENCODING 66
SWIDTH 17 0
DWIDTH 17 0
BBX 17 35 0 -1
BITMAP
000000
000000
000000
000000
7ff000
7ffc00
383e00
380e00
380f00
380700
380700
380700
380700
380f00
380e00
383e00
3ffc00
3ff800
383e00
380f00
380700
380780
380380
380380
380380
380380
380780
380700
380f00
383e00
7ffc00
7ff000
000000
000000
000000
ENDCHAR
STARTCHAR 0043
ENCODING 67
SWIDTH 17 0
DWIDTH 17 0
BBX 17 35 0 -1
BITMAP
000000
000000
000000
000000
01f080
07fd80
0f1f80
1e0780
1c0380
3c0180
380180
380180
780080
700000
700000
700000
700000
700000
700000
700000
700000
700000
700000
780080
380180
380180
3c0380
1c0300
1e0700
0f1e00
07fc00
01f000
000000
000000
000000
ENDCHAR
STARTCHAR 0044
ENCODING 68
SWIDTH 17 0
DWIDTH 17 0
BBX 17 35 0 -1
BITMAP
000000
000000
000000
000000
7fc000
7ff000
387800
381c00
381e00
380e00
380e00
380f00
380700
380700
380700
380700
380700
380700
380700
380700
380700
380700
380700
380700
380f00
380e00
380e00
381e00
381c00
387800
7ff000
7fc000
000000
000000
000000
ENDCHAR
STARTCHAR 0045
ENCODING 69
SWIDTH 17 0
DWIDTH 17 0
BBX 17 35 0 -1
BITMAP
000000
000000
000000
000000
7ffe00
7fff00
380700
380300
380100
380100
380000
380000
380000
380800
380800
381800
383800
3ff800
3ff800
381800
380800
380800
380000
380000
380000
380000
380100
380100
380300
380700
7fff00
7ffe00
000000
000000
000000
ENDCHAR
STARTCHAR 0046
ENCODING 70
SWIDTH 17 0
DWIDTH 17 0
BBX 17 35 0 -1
BITMAP
000000
000000
000000
000000
7fff00
7fff80
1c0380
1c0180
1c0080
1c0080
1c0000
1c0000
1c0000
1c0400
1c0400
1c0c00
1c1c00
1ffc00
1ffc00
1c0c00
1c0400
1c0400
1c0000
1c0000
1c0000
1c0000
1c0000
1c0000
1c0000
1c0000
7f0000
7f0000
000000
000000
000000
ENDCHAR
STARTCHAR 0047
ENCODING 71
SWIDTH 17 0
DWIDTH 17 0
BBX 17 35 0 -1
BITMAP
000000
000000
000000
000000
01e100
07fb00
0f3f00
1e0f00
1c0700
380700
380300
780100
700100
700000
700000
700000
700000
700000
701f80
701f80
700700
700700
700700
700700
780700
380700
380700
1c0700
1e0f00
0f3f00
07fb00
01e100
000000
000000
000000
ENDCHAR
STARTCHAR 0048
ENCODING 72
SWIDTH 17 0
DWIDTH 17 0
BBX 17 35 0 -1
BITMAP
000000
000000
000000
000000
7c0f80
7c0f80
380700
380700
380700
380700
380700
380700
380700
380700
380700
380700
380700
3fff00
3fff00
380700
380700
380700
380700
380700
380700
380700
380700
380700
380700
380700
7c0f80
7c0f80
000000
000000
000000
ENDCHAR
STARTCHAR 0049
ENCODING 73
SWIDTH 17 0
DWIDTH 17 0
BBX 17 35 0 -1
BITMAP
000000
000000
000000
000000
07f000
07f000
01c000
01c000
01c000
01c000
01c000
01c000
01c000
01c000
01c000
01c000
01c000
01c000
01c000
01c000
01c000
01c000
01c000
01c000
01c000
01c000
01c000
01c000
01c000
01c000
07f000
07f000
000000
000000
000000
ENDCHAR
STARTCHAR 004a
ENCODING 74
SWIDTH 17 0
DWIDTH 17 0
BBX 17 35 0 -1
BITMAP
000000
000000
000000
000000
01ff00
01ff00
003800
003800
003800
003800
003800
003800
003800
003800
003800
003800
003800
003800
003800
003800
003800
003800
003800
003800
303800
783800
783800
787800
307000
3cf000
1fe000
078000
000000
000000
000000
ENDCHAR
STARTCHAR 004b
ENCODING 75
SWIDTH 17 0
DWIDTH 17 0
BBX 17 35 0 -1
BITMAP
000000
000000
000000
000000
7c3f00
7c3f00
380c00
381c00
381800
383800
383000
387000
38e000
38c000
39c000
3be000
3be000
3ee000
3e7000
3c7000
387000
383800
383800
383800
381c00
381c00
381c00
380e00
380e00
380f00
7c3f80
7c3f80
000000
000000
000000
ENDCHAR
STARTCHAR 004c
ENCODING 76
SWIDTH 17 0
DWIDTH 17 0
BBX 17 35 0 -1
BITMAP
000000
000000
000000
000000
7f0000
7f0000
1c0000
1c0000
1c0000
1c0000
1c0000
1c0000
1c0000
1c0000
1c0000
1c0000
1c0000
1c0000
1c0000
1c0000
1c0000
1c0000
1c0000
1c0000
1c0000
1c0080
1c0080
1c0180
1c0180
1c0380
7fff80
7fff00
000000
000000
000000
ENDCHAR
STARTCHAR 004d
ENCODING 77
SWIDTH 17 0
DWIDTH 17 0
BBX 17 35 0 -1
BITMAP
000000
000000
000000
000000
780780
780780
380700
3c0f00
3c0f00
3c0f00
3c0f00
3e1f00
3e1f00
3e1f00
3e1f00
373700
373700
373700
373700
377700
33e700
33e700
33e700
33e700
31c700
31c700
31c700
31c700
308700
300700
780f80
780f80
000000
000000
000000
ENDCHAR
STARTCHAR 004e
ENCODING 78
SWIDTH 17 0
DWIDTH 17 0
BBX 17 35 0 -1
BITMAP
000000
000000
000000
000000
7c0f80
7c0f80
1c0600
1e0600
1e0600
1f0600
1f0600
1f0600
1b8600
1b8600
1b8600
19c600
19c600
19c600
18e600
18e600
18e600
187600
187600
187600
183e00
183e00
183e00
181e00
181e00
180e00
7c0e00
7c0600
000000
000000
000000
ENDCHAR
STARTCHAR 004f
ENCODING 79
SWIDTH 17 0
DWIDTH 17 0
BBX 17 35 0 -1
BITMAP
000000
000000
000000
000000
01e000
07f800
0f3c00
1c0e00
1c0e00
380700
380700
380700
700380
700380
700380
700380
700380
700380
700380
700380
700380
700380
700380
700380
380700
380700
380700
1c0e00
1c0e00
0f3c00
07f800
01e000
000000
000000
000000
ENDCHAR
STARTCHAR 0050
ENCODING 80
SWIDTH 17 0
DWIDTH 17 0
BBX 17 35 0 -1
BITMAP
000000
000000
000000
000000
7ff000
7ffe00
1c1f00
1c0700
1c0780
1c0380
1c0380
1c0380
1c0380
1c0380
1c0380
1c0700
1c0f00
1c1e00
1ffc00
1ff000
1c0000
1c0000
1c0000
1c0000
1c0000
1c0000
1c0000
1c0000
1c0000
1c0000
7f0000
7f0000
000000
000000
000000
ENDCHAR
STARTCHAR 0051
ENCODING 81
SWIDTH 17 0
DWIDTH 17 0
BBX 17 35 0 -1
BITMAP
000000
000000
000000
000000
01e000
07f800
0f3c00
1c0e00
1c0e00
380700
380700
380700
700380
700380
700380
700380
700380
700380
700380
700380
700380
700380
700380
700380
380700
39e700
3bf700
1e3e00
1e1e00
0f3e80
07ff80
01e700
000000
000000
000000
ENDCHAR
STARTCHAR 0052
ENCODING 82
SWIDTH 17 0
DWIDTH 17 0
BBX 17 35 0 -1
BITMAP
000000
000000
000000
000000
7fe000
7ffc00
383e00
380e00
380f00
380700
380700
380700
380700
380700
380f00
380e00
383e00
3ffc00
3ff000
38e000
387000
387000
383800
383800
381c00
381c00
380e00
380e00
380700
380700
7c0f80
7c0f80
000000
000000
000000
ENDCHAR
STARTCHAR 0053
ENCODING 83
SWIDTH 17 0
DWIDTH 17 0
BBX 17 35 0 -1
BITMAP
000000
000000
000000
000000
07c200
1ff600
3c7e00
381e00
700e00
700600
700600
700200
780000
3c0000
3e0000
1f8000
07e000
01f800
007c00
001e00
000e00
000f00
400700
400700
600700
600700
700f00
700e00
781e00
7e3c00
6ff800
43e000
000000
000000
000000
ENDCHAR
STARTCHAR 0054
ENCODING 84
SWIDTH 17 0
DWIDTH 17 0
BBX 17 35 0 -1
BITMAP
000000
000000
000000
000000
3ffe00
7fff00
71c700
61c300
61c300
41c100
01c000
01c000
01c000
01c000
01c000
01c000
01c000
01c000
01c000
01c000
01c000
01c000
01c000
01c000
01c000
01c000
01c000
01c000
01c000
01c000
07f000
07f000
000000
000000
000000
ENDCHAR
STARTCHAR 0055
ENCODING 85
SWIDTH 17 0
DWIDTH 17 0
BBX 17 35 0 -1
BITMAP
000000
000000
000000
000000
7e1f80
7e1f80
380600
380600
380600
380600
380600
380600
380600
380600
380600
380600
380600
380600
380600
380600
380600
380600
380600
380600
380600
380600
380600
380e00
1c0c00
1e3c00
0ff800
03e000
000000
000000
000000
ENDCHAR
STARTCHAR 0056
ENCODING 86
SWIDTH 17 0
DWIDTH 17 0
BBX 17 35 0 -1
BITMAP
000000
000000
000000
000000
7c0780
7c0780
380300
380300
380300
380300
1c0600
1c0600
1c0600
1c0600
0e0c00
0e0c00
0e0c00
0e0c00
071800
071800
071800
071800
03b000
03b000
03b000
03b000
01e000
01e000
01e000
01e000
00c000
00c000
000000
000000
000000
ENDCHAR
STARTCHAR 0057
ENCODING 87
SWIDTH 17 0
DWIDTH 17 0
BBX 17 35 0 -1
BITMAP
000000
000000
000000
000000
79e780
79e780
71c300
71c300
71e300
71e300
71e300
71e300
71e300
39f600
3b7600
3b7600
3b7600
3b7600
3b7600
3f3e00
3f3e00
1e3c00
1e3c00
1e3c00
1e3c00
1e3c00
1e3c00
0e1c00
0c1800
0c1800
0c1800
0c1800
000000
000000
000000
ENDCHAR
STARTCHAR 0058
ENCODING 88
SWIDTH 17 0
DWIDTH 17 0
BBX 17 35 0 -1
BITMAP
000000
000000
000000
000000
7e0f80
7e0f80
1c0700
1c0600
0e0600
0e0c00
070c00
071800
039800
03b000
01f000
01e000
00e000
00e000
01f000
01f000
01f000
033800
033800
061c00
061c00
0c1c00
0c0e00
180e00
180700
380700
7e0f80
7e0f80
000000
000000
000000
ENDCHAR
STARTCHAR 0059
ENCODING 89
SWIDTH 17 0
DWIDTH 17 0
BBX 17 35 0 -1
BITMAP
000000
000000
000000
000000
7c1f80
7c1f80
380600
380600
1c0c00
1c0c00
1c0c00
0e1800
0e1800
073000
073000
073000
03e000
03e000
03e000
01c000
01c000
01c000
01c000
01c000
01c000
01c000
01c000
01c000
01c000
01c000
07f000
07f000
000000
000000
000000
ENDCHAR
STARTCHAR 005a
ENCODING 90
SWIDTH 17 0
DWIDTH 17 0
BBX 17 35 0 -1
BITMAP
000000
000000
000000
000000
1fff00
3fff00
380e00
300e00
301c00
201c00
003800
003800
007000
007000
007000
00e000
00e000
01c000
01c000
038000
038000
070000
070000
070000
0e0000
0e0000
1c0100
1c0300
380300
380700
7fff00
7ffe00
000000
000000
000000
ENDCHAR
STARTCHAR 005b
ENCODING 91
SWIDTH 17 0
DWIDTH 17 0
BBX 17 35 0 -1
BITMAP
000000
000000
00ff00
00ff00
00c000
00c000
00c000
00c000
00c000
00c000
00c000
00c000
00c000
00c000
00c000
00c000
00c000
00c000
00c000
00c000
00c000
00c000
00c000
00c000
00c000
00c000
00c000
00c000
00c000
00c000
00c000
00c000
00ff00
00ff00
000000
ENDCHAR
STARTCHAR 005c
ENCODING 92
SWIDTH 17 0
DWIDTH 17 0
BBX 17 35 0 -1
BITMAP
000000
000000
000000
000000
7c1f80
7c1f80
380600
380600
1c0c00
1c0c00
1c0c00
0e1800
0e1800
073000
073000
073000
03e000
7fff80
7fff80
01c000
01c000
01c000
7fff80
7fff80
01c000
01c000
01c000
01c000
01c000
01c000
07f000
07f000
000000
000000
000000
ENDCHAR
STARTCHAR 005d
ENCODING 93
SWIDTH 17 0
DWIDTH 17 0
BBX 17 35 0 -1
BITMAP
000000
000000
3fc000
3fc000
00c000
00c000
00c000
00c000
00c000
00c000
00c000
00c000
00c000
00c000
00c000
00c000
00c000
00c000
00c000
00c000
00c000
00c000
00c000
00c000
00c000
00c000
00c000
00c000
00c000
00c000
00c000
00c000
3fc000
3fc000
000000
ENDCHAR
STARTCHAR 005e
ENCODING 94
SWIDTH 17 0
DWIDTH 17 0
BBX 17 35 0 -1
BITMAP
000000
000000
01c000
03e000
063000
0c1800
000000
000000
000000
000000
000000
000000
000000
000000
000000
000000
000000
000000
000000
000000
000000
000000
000000
000000
000000
000000
000000
000000
000000
000000
000000
000000
000000
000000
000000
ENDCHAR
STARTCHAR 005f
ENCODING 95
SWIDTH 17 0
DWIDTH 17 0
BBX 17 35 0 -1
BITMAP
000000
000000
000000
000000
000000
000000
000000
000000
000000
000000
000000
000000
000000
000000
000000
000000
000000
000000
000000
000000
000000
000000
000000
000000
000000
000000
000000
000000
000000
000000
000000
000000
7fff80
7fff80
000000
ENDCHAR
STARTCHAR 0060
ENCODING 96
SWIDTH 17 0
DWIDTH 17 0
BBX 17 35 0 -1
BITMAP
000000
000000
0f8000
07f800
007c00
000000
000000
000000
000000
000000
000000
000000
000000
000000
000000
000000
000000
000000
000000
000000
000000
000000
000000
000000
000000
000000
000000
000000
000000
000000
000000
000000
000000
000000
000000
ENDCHAR
STARTCHAR 0061
ENCODING 97
SWIDTH 17 0
DWIDTH 17 0
BBX 17 35 0 -1
BITMAP
000000
000000
000000
000000
000000
000000
000000
000000
000000
000000
000000
000000
000000
000000
07e000
1ff800
3c3c00
781c00
780e00
300e00
000e00
00fe00
07fe00
1f8e00
3c0e00
780e00
700e00
700e00
701e80
3c7f80
3ff780
0fc300
000000
000000
000000
ENDCHAR
STARTCHAR 0062
ENCODING 98
SWIDTH 17 0
DWIDTH 17 0
BBX 17 35 0 -1
BITMAP
000000
000000
000000
000000
7c0000
7c0000
1c0000
1c0000
1c0000
1c0000
1c0000
1c0000
1c0000
1c0000
1cf000
1ffc00
1f9e00
1e0700
1c0700
1c0380
1c0380
1c0380
1c0380
1c0380
1c0380
1c0380
1c0380
1e0700
1e0700
1f9e00
1dfc00
18f000
000000
000000
000000
ENDCHAR
STARTCHAR 0063
ENCODING 99
SWIDTH 17 0
DWIDTH 17 0
BBX 17 35 0 -1
BITMAP
000000
000000
000000
000000
000000
000000
000000
000000
000000
000000
000000
000000
000000
000000
03f000
0ffc00
1e1e00
3c0f00
380f00
780f00
700700
700000
700000
700000
700000
700000
780180
380380
3c0700
1e1e00
0ffc00
03f000
000000
000000
000000
ENDCHAR
STARTCHAR 0064
ENCODING 100
SWIDTH 17 0
DWIDTH 17 0
BBX 17 35 0 -1
BITMAP
000000
000000
000000
000000
003e00
003e00
000e00
000e00
000e00
000e00
000e00
000e00
000e00
000e00
03ce00
0ffe00
1e7e00
381e00
380e00
700e00
700e00
700e00
700e00
700e00
700e00
700e00
700e00
380e00
381e00
1e7e00
0ff780
03c780
000000
000000
000000
ENDCHAR
STARTCHAR 0065
ENCODING 101
SWIDTH 17 0
DWIDTH 17 0
BBX 17 35 0 -1
BITMAP
000000
000000
000000
000000
000000
000000
000000
000000
000000
000000
000000
000000
000000
000000
03f000
0ffc00
1e1e00
3c0f00
380700
780780
700380
7fff80
7fff80
700000
700000
700000
780180
380380
3c0700
1e1e00
0ffc00
03f000
000000
000000
000000
ENDCHAR
STARTCHAR 0066
ENCODING 102
SWIDTH 17 0
DWIDTH 17 0
BBX 17 35 0 -1
BITMAP
000000
000000
000000
000000
003c00
00ff00
01e780
01c780
01c780
01c300
01c000
01c000
01c000
01c000
1ffc00
1ffc00
01c000
01c000
01c000
01c000
01c000
01c000
01c000
01c000
01c000
01c000
01c000
01c000
01c000
01c000
0ff800
0ff800
000000
000000
000000
ENDCHAR
STARTCHAR 0067
ENCODING 103
SWIDTH 17 0
DWIDTH 17 0
BBX 17 35 0 -1
BITMAP
000000
000000
000000
000000
000000
000000
000000
000000
000000
000000
000000
000000
000000
000300
07e780
1fff80
3c3c00
381c00
381c00
3c3c00
1e7800
0ff000
1fc000
380000
3fe000
1ffc00
3ffe00
781f00
700700
700700
700700
3c1e00
1ffc00
07f000
000000
ENDCHAR
STARTCHAR 0068
ENCODING 104
SWIDTH 17 0
DWIDTH 17 0
BBX 17 35 0 -1
BITMAP
000000
000000
000000
000000
7c0000
7c0000
1c0000
1c0000
1c0000
1c0000
1c0000
1c0000
1c0000
1c0000
1cf000
1ffc00
1f1e00
1e0e00
1c0700
1c0700
1c0700
1c0700
1c0700
1c0700
1c0700
1c0700
1c0700
1c0700
1c0700
1c0700
7f1f80
7f1f80
000000
000000
000000
ENDCHAR
STARTCHAR 0069
ENCODING 105
SWIDTH 17 0
DWIDTH 17 0
BBX 17 35 0 -1
BITMAP
000000
000000
000000
000000
01c000
03e000
03e000
03e000
01c000
000000
000000
000000
000000
000000
0fc000
0fc000
01c000
01c000
01c000
01c000
01c000
01c000
01c000
01c000
01c000
01c000
01c000
01c000
01c000
01c000
0ff800
0ff800
000000
000000
000000
ENDCHAR
STARTCHAR 006a
ENCODING 106
SWIDTH 17 0
DWIDTH 17 0
BBX 17 35 0 -1
BITMAP
000000
000000
000000
000000
007000
00f800
00f800
00f800
007000
000000
000000
000000
000000
000000
03f000
03f000
007000
007000
007000
007000
007000
007000
007000
007000
007000
007000
007000
007000
187000
3c7000
3c7000
3ce000
1fe000
078000
000000
ENDCHAR
STARTCHAR 006b
ENCODING 107
SWIDTH 17 0
DWIDTH 17 0
BBX 17 35 0 -1
BITMAP
000000
000000
000000
000000
780000
780000
380000
380000
380000
380000
380000
380000
380000
380000
383f00
383f00
381c00
383800
387000
38e000
39e000
3be000
3ff000
3e7000
3c3800
383800
381c00
381c00
380e00
380e00
7e1f80
7e1f80
000000
000000
000000
ENDCHAR
STARTCHAR 006c
ENCODING 108
SWIDTH 17 0
DWIDTH 17 0
BBX 17 35 0 -1
BITMAP
000000
000000
000000
000000
07c000
07c000
01c000
01c000
01c000
01c000
01c000
01c000
01c000
01c000
01c000
01c000
01c000
01c000
01c000
01c000
01c000
01c000
01c000
01c000
01c000
01c000
01c000
01c000
01c000
01c000
07f000
07f000
000000
000000
000000
ENDCHAR
STARTCHAR 006d
ENCODING 109
SWIDTH 17 0
DWIDTH 17 0
BBX 17 35 0 -1
BITMAP
000000
000000
000000
000000
000000
000000
000000
000000
000000
000000
000000
000000
000000
000000
7b9e00
7fff00
3df780
38e380
38e380
38e380
38e380
38e380
38e380
38e380
38e380
38e380
38e380
38e380
38e380
38e380
7df780
7df780
000000
000000
000000
ENDCHAR
STARTCHAR 006e
ENCODING 110
SWIDTH 17 0
DWIDTH 17 0
BBX 17 35 0 -1
BITMAP
000000
000000
000000
000000
000000
000000
000000
000000
000000
000000
000000
000000
000000
000000
3cf000
3ffc00
1f1e00
1e0e00
1c0700
1c0700
1c0700
1c0700
1c0700
1c0700
1c0700
1c0700
1c0700
1c0700
1c0700
1c0700
3e0f80
3e0f80
000000
000000
000000
ENDCHAR
STARTCHAR 006f
ENCODING 111
SWIDTH 17 0
DWIDTH 17 0
BBX 17 35 0 -1
BITMAP
000000
000000
000000
000000
000000
000000
000000
000000
000000
000000
000000
000000
000000
000000
03f000
0ffc00
1e1e00
380700
380700
700380
700380
700380
700380
700380
700380
700380
700380
380700
380700
1e1e00
0ffc00
03f000
000000
000000
000000
ENDCHAR
STARTCHAR 0070
ENCODING 112
SWIDTH 17 0
DWIDTH 17 0
BBX 17 35 0 -1
BITMAP
000000
000000
000000
000000
000000
000000
000000
000000
000000
000000
000000
000000
000000
000000
7cf000
7ffc00
1f9e00
1e0700
1c0700
1c0380
1c0380
1c0380
1c0380
1c0380
1c0700
1e0700
1f9e00
1ffc00
1cf000
1c0000
1c0000
1c0000
7f0000
7f0000
000000
ENDCHAR
STARTCHAR 0071
ENCODING 113
SWIDTH 17 0
DWIDTH 17 0
BBX 17 35 0 -1
BITMAP
000000
000000
000000
000000
000000
000000
000000
000000
000000
000000
000000
000000
000000
000000
03c600
0ffe00
1e7e00
381e00
380e00
700e00
700e00
700e00
700e00
700e00
380e00
381e00
1e7e00
0ffe00
03ce00
000e00
000e00
000e00
003f80
003f80
000000
ENDCHAR
STARTCHAR 0072
ENCODING 114
SWIDTH 17 0
DWIDTH 17 0
BBX 17 35 0 -1
BITMAP
000000
000000
000000
000000
000000
000000
000000
000000
000000
000000
000000
000000
000000
000000
3e3c00
3eff00
0fc300
0f0780
0f0780
0e0700
0e0000
0e0000
0e0000
0e0000
0e0000
0e0000
0e0000
0e0000
0e0000
0e0000
3f8000
3f8000
000000
000000
000000
ENDCHAR
STARTCHAR 0073
ENCODING 115
SWIDTH 17 0
DWIDTH 17 0
BBX 17 35 0 -1
BITMAP
000000
000000
000000
000000
000000
000000
000000
000000
000000
000000
000000
000000
000000
000000
03e600
0ffe00
1e3e00
3c0e00
380600
3c0600
1f0600
1fe000
0ff800
01fe00
203e00
300f00
300700
380700
3c0f00
3f1e00
3ffc00
31f000
000000
000000
000000
ENDCHAR
STARTCHAR 0074
ENCODING 116
SWIDTH 17 0
DWIDTH 17 0
BBX 17 35 0 -1
BITMAP
000000
000000
000000
000000
000000
000000
000000
000000
010000
030000
070000
070000
070000
070000
3ffc00
3ffc00
070000
070000
070000
070000
070000
070000
070000
070000
070000
070000
070000
070000
070c00
079c00
03f800
01e000
000000
000000
000000
ENDCHAR
STARTCHAR 0075
ENCODING 117
SWIDTH 17 0
DWIDTH 17 0
BBX 17 35 0 -1
BITMAP
000000
000000
000000
000000
000000
000000
000000
000000
000000
000000
000000
000000
000000
000000
3c0f00
3c0f00
1c0700
1c0700
1c0700
1c0700
1c0700
1c0700
1c0700
1c0700
1c0700
1c0700
1c0700
1c0700
0e0f00
0f1f00
07ff80
01e780
000000
000000
000000
ENDCHAR
STARTCHAR 0076
ENCODING 118
SWIDTH 17 0
DWIDTH 17 0
BBX 17 35 0 -1
BITMAP
000000
000000
000000
000000
000000
000000
000000
000000
000000
000000
000000
000000
000000
000000
7f1f80
7f1f80
1c0600
1c0600
1c0600
0e0c00
0e0c00
0e0c00
071800
071800
071800
03b000
03b000
03b000
01e000
01e000
00c000
00c000
000000
000000
000000
ENDCHAR
STARTCHAR 0077
ENCODING 119
SWIDTH 17 0
DWIDTH 17 0
BBX 17 35 0 -1
BITMAP
000000
000000
000000
000000
000000
000000
000000
000000
000000
000000
000000
000000
000000
000000
7df780
7df780
38e300
38e300
38e300
38e300
1cf600
1df600
1df600
1df600
0f3c00
0f3c00
0f3c00
0f3c00
0f3c00
061800
061800
061800
000000
000000
000000
ENDCHAR
STARTCHAR 0078
ENCODING 120
SWIDTH 17 0
DWIDTH 17 0
BBX 17 35 0 -1
BITMAP
000000
000000
000000
000000
000000
000000
000000
000000
000000
000000
000000
000000
000000
000000
7e3f00
7e3f00
3c0c00
1e1800
0e3000
072000
076000
03c000
03c000
01e000
01e000
037000
067000
043800
0c3c00
181e00
7e3f00
7e3f00
000000
000000
000000
ENDCHAR
STARTCHAR 0079
ENCODING 121
SWIDTH 17 0
DWIDTH 17 0
BBX 17 35 0 -1
BITMAP
000000
000000
000000
000000
000000
000000
000000
000000
000000
000000
000000
000000
000000
000000
7f1f80
7f1f80
1c0600
1c0600
0e0c00
0e0c00
071800
071800
03b000
03b000
01e000
01e000
00c000
00c000
018000
318000
7b0000
7f0000
3e0000
180000
000000
ENDCHAR
STARTCHAR 007a
ENCODING 122
SWIDTH 17 0
DWIDTH 17 0
BBX 17 35 0 -1
BITMAP
000000
000000
000000
000000
000000
000000
000000
000000
000000
000000
000000
000000
000000
000000
1fff00
1fff00
180e00
181e00
101c00
003800
007800
00f000
00e000
01c000
03c000
078000
070000
0e0100
1e0300
1c0300
3fff00
3fff00
000000
000000
000000
ENDCHAR
STARTCHAR 007b
ENCODING 123
SWIDTH 17 0
DWIDTH 17 0
BBX 17 35 0 -1
BITMAP
000000
000000
001c00
003800
007000
006000
00e000
00e000
00e000
00e000
006000
007000
007000
007000
007000
006000
006000
03c000
03c000
006000
006000
007000
007000
007000
007000
006000
00e000
00e000
00e000
00e000
006000
007000
003800
001c00
000000
ENDCHAR
STARTCHAR 007c
ENCODING 124
SWIDTH 17 0
DWIDTH 17 0
BBX 17 35 0 -1
BITMAP
000000
000000
00c000
00c000
00c000
00c000
00c000
00c000
00c000
00c000
00c000
00c000
00c000
00c000
00c000
00c000
00c000
00c000
00c000
00c000
00c000
00c000
00c000
00c000
00c000
00c000
00c000
00c000
00c000
00c000
00c000
00c000
00c000
00c000
000000
ENDCHAR
STARTCHAR 007d
ENCODING 125
SWIDTH 17 0
DWIDTH 17 0
BBX 17 35 0 -1
BITMAP
000000
000000
0e0000
070000
038000
018000
01c000
01c000
01c000
01c000
018000
038000
038000
038000
038000
018000
018000
00f000
00f000
018000
018000
038000
038000
038000
038000
018000
01c000
01c000
01c000
01c000
018000
038000
070000
0e0000
000000
ENDCHAR
STARTCHAR 007e
ENCODING 126
SWIDTH 17 0
DWIDTH 17 0
BBX 17 35 0 -1
BITMAP
000000
000000
7fff80
7fff80
000000
000000
000000
000000
000000
000000
000000
000000
000000
000000
000000
000000
000000
000000
000000
000000
000000
000000
000000
000000
000000
000000
000000
000000
000000
000000
000000
000000
000000
000000
000000
ENDCHAR
STARTCHAR 7f
ENCODING 127
SWIDTH 17 0
DWIDTH 17 0
BBX 17 35 0 -1
BITMAP
000000
000000
000000
000000
000000
000000
000000
000000
000000
000000
000000
000000
000000
000000
000000
000000
000000
000000
000000
000000
000000
000000
000000
000000
000000
000000
000000
000000
000000
000000
000000
000000
000000
000000
000000
ENDCHAR
STARTCHAR a1
ENCODING 161
SWIDTH 17 0
DWIDTH 17 0
BBX 17 35 0 -1
BITMAP
000000
000000
000000
000000
000000
000000
000000
000000
000000
000000
000000
000000
000000
000000
000000
000000
000000
000000
000000
000000
000000
000000
000000
000000
000000
1f0000
3f8000
71c000
60c000
60c000
60c000
71c000
3f8000
1f0000
000000
ENDCHAR
STARTCHAR a2
ENCODING 162
SWIDTH 17 0
DWIDTH 17 0
BBX 17 35 0 -1
BITMAP
000000
000000
07fe00
07fe00
060000
060000
060000
060000
060000
060000
060000
060000
060000
060000
060000
060000
060000
060000
060000
060000
060000
060000
060000
060000
060000
000000
000000
000000
000000
000000
000000
000000
000000
000000
000000
ENDCHAR
STARTCHAR a3
ENCODING 163
SWIDTH 17 0
DWIDTH 17 0
BBX 17 35 0 -1
BITMAP
000000
000000
000000
000000
000000
000000
000000
000000
000000
000000
000000
001800
001800
001800
001800
001800
001800
001800
001800
001800
001800
001800
001800
001800
001800
001800
001800
001800
001800
001800
001800
001800
1ff800
1ff800
000000
ENDCHAR
STARTCHAR a4
ENCODING 164
SWIDTH 17 0
DWIDTH 17 0
BBX 17 35 0 -1
BITMAP
000000
000000
000000
000000
000000
000000
000000
000000
000000
000000
000000
000000
000000
000000
000000
000000
000000
000000
000000
000000
000000
000000
000000
000000
000000
000000
300000
1c0000
0e0000
070000
070000
038000
038000
010000
000000
ENDCHAR
STARTCHAR a5
ENCODING 165
SWIDTH 17 0
DWIDTH 17 0
BBX 17 35 0 -1
BITMAP
000000
000000
000000
000000
000000
000000
000000
000000
000000
000000
000000
000000
000000
000000
000000
01c000
03e000
03e000
03e000
01c000
000000
000000
000000
000000
000000
000000
000000
000000
000000
000000
000000
000000
000000
000000
000000
ENDCHAR
STARTCHAR a6
ENCODING 166
SWIDTH 17 0
DWIDTH 17 0
BBX 17 35 0 -1
BITMAP
000000
000000
000000
000000
000000
000200
207f00
3fff80
1f8780
080700
000700
000700
000700
000f00
10fe00
1ffe00
0f0e00
040e00
001c00
001c00
003800
003800
007000
007000
00e000
00e000
01c000
038000
030000
060000
0c0000
000000
000000
000000
000000
ENDCHAR
STARTCHAR a7
ENCODING 167
SWIDTH 17 0
DWIDTH 17 0
BBX 17 35 0 -1
BITMAP
000000
000000
000000
000000
000000
000000
000000
000000
000000
000000
000000
000000
000400
41fe00
7fff00
3e0f00
001c00
003800
037000
01c000
01c000
01c000
038000
038000
038000
070000
070000
060000
0e0000
0c0000
180000
100000
000000
000000
000000
ENDCHAR
STARTCHAR a8
ENCODING 168
SWIDTH 17 0
DWIDTH 17 0
BBX 17 35 0 -1
BITMAP
000000
000000
000000
000000
000000
000000
000000
000000
000000
000000
000000
001800
001c00
001e00
003c00
003800
007000
00f000
00e000
01e000
03f000
077000
0e7000
1c7000
307000
207000
007000
007000
007000
007000
007000
006000
000000
000000
000000
ENDCHAR
STARTCHAR a9
ENCODING 169
SWIDTH 17 0
DWIDTH 17 0
BBX 17 35 0 -1
BITMAP
000000
000000
000000
000000
000000
000000
000000
000000
000000
000000
000000
038000
01e000
01c000
01c400
31fe00
1fff00
1f8700
180700
1c0e00
0c0e00
0e0e00
0e1c00
0c1c00
003800
003800
007000
006000
00e000
00c000
018000
010000
000000
000000
000000
ENDCHAR
STARTCHAR aa
ENCODING 170
SWIDTH 17 0
DWIDTH 17 0
BBX 17 35 0 -1
BITMAP
000000
000000
000000
000000
000000
000000
000000
000000
000000
000000
000000
000000
000000
001000
20fc00
3ffe00
1f8400
09c000
01c000
01c000
01c000
01c000
01c000
01c000
01c000
018800
41fe00
7fff00
3f8200
180000
000000
000000
000000
000000
000000
ENDCHAR
STARTCHAR ab
ENCODING 171
SWIDTH 17 0
DWIDTH 17 0
BBX 17 35 0 -1
BITMAP
000000
000000
000000
000000
000000
000000
000000
000000
000000
000000
000000
000000
00e000
007800
007000
007200
207f00
3fff80
1ff100
08f000
01f000
03b000
033000
073000
0e3000
0c3000
183000
333000
21f000
00f000
006000
000000
000000
000000
000000
ENDCHAR
STARTCHAR ac
ENCODING 172
SWIDTH 17 0
DWIDTH 17 0
BBX 17 35 0 -1
BITMAP
000000
000000
000000
000000
000000
000000
000000
000000
000000
000000
000000
000000
0e0000
070000
070200
071f00
03ff80
4ff700
7f0600
3b8c00
039800
019000
01c000
01c000
01c000
00e000
00e000
00e000
00e000
00e000
004000
000000
000000
000000
000000
ENDCHAR
STARTCHAR ad
ENCODING 173
SWIDTH 17 0
DWIDTH 17 0
BBX 17 35 0 -1
BITMAP
000000
000000
000000
000000
000000
000000
000000
000000
000000
000000
000000
000000
000000
000000
001000
10f800
1ffc00
0fb800
043800
003800
003800
003800
007000
007000
007000
007600
23ff00
3fff00
1e0000
000000
000000
000000
000000
000000
000000
ENDCHAR
STARTCHAR ae
ENCODING 174
SWIDTH 17 0
DWIDTH 17 0
BBX 17 35 0 -1
BITMAP
000000
000000
000000
000000
000000
000000
000000
000000
000000
000000
000000
000000
000000
000800
20fc00
3ffe00
1f1c00
041c00
001c00
001c00
10fc00
1ffc00
0f1c00
041c00
001c00
001800
107c00
1ffe00
0f8000
040000
000000
000000
000000
000000
000000
ENDCHAR
STARTCHAR af
ENCODING 175
SWIDTH 17 0
DWIDTH 17 0
BBX 17 35 0 -1
BITMAP
000000
000000
000000
000000
000000
000000
000000
000000
000000
000000
000000
000000
020000
030e00
438700
618380
31c780
39c700
388700
180e00
180e00
001c00
001c00
003800
003000
007000
006000
00e000
00c000
018000
010000
000000
000000
000000
000000
ENDCHAR
STARTCHAR b0
ENCODING 176
SWIDTH 17 0
DWIDTH 17 0
BBX 17 35 0 -1
BITMAP
000000
000000
000000
000000
000000
000000
000000
000000
000000
000000
000000
000000
000000
000000
000000
400600
7fff00
3fff80
180080
000000
000000
000000
000000
000000
000000
000000
000000
000000
000000
000000
000000
000000
000000
000000
000000
ENDCHAR
STARTCHAR b1
ENCODING 177
SWIDTH 17 0
DWIDTH 17 0
BBX 17 35 0 -1
BITMAP
000000
000000
000000
000000
000000
000000
000200
40ff00
7fff80
3f8780
100700
000e00
001c00
01b000
01e000
00e000
00e000
01c000
01c000
01c000
01c000
038000
038000
038000
030000
070000
070000
060000
0e0000
0c0000
080000
000000
000000
000000
000000
ENDCHAR
STARTCHAR b2
ENCODING 178
SWIDTH 17 0
DWIDTH 17 0
BBX 17 35 0 -1
BITMAP
000000
000000
000000
000000
000000
000400
000600
000f00
000f00
001e00
003c00
003800
007000
00e000
01c000
03e000
077000
0e7000
1c7000
387000
607000
007000
007000
007000
007000
007000
007000
00f000
00f000
007000
002000
000000
000000
000000
000000
ENDCHAR
STARTCHAR b3
ENCODING 179
SWIDTH 17 0
DWIDTH 17 0
BBX 17 35 0 -1
BITMAP
000000
000000
000000
000000
030000
01c000
01e000
01c000
01c400
61fe00
7fff00
3f8780
380780
380700
380700
380700
1c0e00
1c0e00
1c0e00
1c0e00
181c00
001c00
001c00
003800
003800
007000
007000
00e000
00c000
01c000
018000
010000
000000
000000
000000
ENDCHAR
STARTCHAR b4
ENCODING 180
SWIDTH 17 0
DWIDTH 17 0
BBX 17 35 0 -1
BITMAP
000000
000000
000000
000000
000000
000000
000000
000000
000000
000800
207e00
3fff00
1fc200
0d8000
01c000
01c000
01c000
01c000
01c000
01c000
01c000
01c000
01c600
41ff00
7fff80
3f8180
180000
000000
000000
000000
000000
000000
000000
000000
000000
ENDCHAR
STARTCHAR b5
ENCODING 181
SWIDTH 17 0
DWIDTH 17 0
BBX 17 35 0 -1
BITMAP
000000
000000
000000
000000
000000
01e000
00f800
007000
007000
007000
007200
407f00
7fff80
3ff380
18f000
00f000
01f000
01f000
03f000
077000
067000
0e7000
1c7000
387000
307000
607000
407000
007000
07f000
01f000
006000
000000
000000
000000
000000
ENDCHAR
STARTCHAR b6
ENCODING 182
SWIDTH 17 0
DWIDTH 17 0
BBX 17 35 0 -1
BITMAP
000000
000000
000000
000000
018000
01c000
00e000
00e000
01c000
01c000
01c600
41ff00
7fff80
3f8780
1b8700
038700
070700
070700
070700
0e0700
0e0700
0e0e00
1c0e00
1c0e00
180e00
381c00
309c00
60fc00
407800
003800
001000
000000
000000
000000
000000
ENDCHAR
STARTCHAR b7
ENCODING 183
SWIDTH 17 0
DWIDTH 17 0
BBX 17 35 0 -1
BITMAP
000000
000000
000000
000000
000000
070000
038000
038000
038400
039e00
03fe00
43fc00
7fe000
7fc000
31c000
01c000
01c700
01df80
01ff80
5ff800
7fe000
3ce000
10e000
00e000
007000
007000
007000
007000
007000
007000
002000
000000
000000
000000
000000
ENDCHAR
STARTCHAR b8
ENCODING 184
SWIDTH 17 0
DWIDTH 17 0
BBX 17 35 0 -1
BITMAP
000000
000000
000000
000000
000000
038000
01c000
01c200
01df00
03ff80
03c380
070380
060700
0e0700
0c0700
180e00
380e00
301c00
601c00
003800
003800
007000
00e000
00c000
01c000
038000
070000
060000
0c0000
180000
300000
000000
000000
000000
000000
ENDCHAR
STARTCHAR b9
ENCODING 185
SWIDTH 17 0
DWIDTH 17 0
BBX 17 35 0 -1
BITMAP
000000
000000
000000
000000
000000
0c0000
060000
070000
070000
060000
0e0600
0c1f80
1fff80
1ff000
387000
303000
603800
403800
007000
007000
007000
00e000
00e000
01c000
01c000
038000
070000
060000
0c0000
080000
000000
000000
000000
000000
000000
ENDCHAR
STARTCHAR ba
ENCODING 186
SWIDTH 17 0
DWIDTH 17 0
BBX 17 35 0 -1
BITMAP
000000
000000
000000
000000
000000
000000
000000
000000
000400
20fe00
3fff00
1f0e00
0c0e00
000e00
000e00
000e00
000e00
000e00
000e00
001c00
001c00
001c00
001c00
001c00
20fe00
3ffe00
1f0000
0c0000
000000
000000
000000
000000
000000
000000
000000
ENDCHAR
STARTCHAR bb
ENCODING 187
SWIDTH 17 0
DWIDTH 17 0
BBX 17 35 0 -1
BITMAP
000000
000000
000000
000000
007000
0c3800
0e3c00
073800
063800
063800
063900
467f80
7fff80
3fb900
363800
063800
063800
063800
0e3800
0e3800
0c7000
007000
007000
006000
00e000
00c000
01c000
018000
030000
060000
040000
000000
000000
000000
000000
ENDCHAR
STARTCHAR bc
ENCODING 188
SWIDTH 17 0
DWIDTH 17 0
BBX 17 35 0 -1
BITMAP
000000
000000
000000
000000
000000
000000
000000
1c0000
0f0000
078080
038080
010180
000180
000300
700300
3c0700
1e0600
0e0e00
040c00
001c00
003800
003800
007000
00e000
01c000
33c000
1f8000
0f0000
0e0000
040000
000000
000000
000000
000000
000000
ENDCHAR
STARTCHAR bd
ENCODING 189
SWIDTH 17 0
DWIDTH 17 0
BBX 17 35 0 -1
BITMAP
000000
000000
000000
000000
000000
000000
000800
10fc00
1ffe00
0f1c00
041c00
001c00
003800
003800
007000
007000
00e000
00e000
01e000
01e000
03b000
031800
071c00
0e0e00
0c0e00
1c0700
380700
300380
600380
400100
000000
000000
000000
000000
000000
ENDCHAR
STARTCHAR be
ENCODING 190
SWIDTH 17 0
DWIDTH 17 0
BBX 17 35 0 -1
BITMAP
000000
000000
000000
000000
000000
0c0000
070000
078000
078000
070000
070000
070200
073f00
47ff80
7fc700
3f0600
170e00
071c00
071800
073000
072000
070000
070000
070000
070000
070000
070000
038e00
03ff00
00fe00
000000
000000
000000
000000
000000
ENDCHAR
STARTCHAR bf
ENCODING 191
SWIDTH 17 0
DWIDTH 17 0
BBX 17 35 0 -1
BITMAP
000000
000000
000000
000000
000000
000000
000c00
400600
600700
300780
380700
180700
1c0700
1c0700
0c0e00
0c0e00
080e00
001c00
001c00
001800
003800
003000
007000
006000
00c000
01c000
018000
030000
060000
0c0000
180000
000000
000000
000000
000000
ENDCHAR
STARTCHAR c0
ENCODING 192
SWIDTH 17 0
DWIDTH 17 0
BBX 17 35 0 -1
BITMAP
000000
000000
000000
000000
000000
038000
01c000
01c000
01c200
039f00
03ff80
07e780
070700
0e0700
1e0f00
1f0e00
3b9e00
61dc00
41fc00
00f800
007800
007000
00e000
01e000
03c000
078000
070000
0e0000
1c0000
380000
600000
000000
000000
000000
000000
ENDCHAR
STARTCHAR c1
ENCODING 193
SWIDTH 17 0
DWIDTH 17 0
BBX 17 35 0 -1
BITMAP
000000
000000
000000
000000
000800
003c00
00fe00
03f000
0fc000
3ec000
00e000
00e000
00e000
00e600
40ff80
7fff80
3fe100
18e000
00e000
00e000
01c000
01c000
01c000
01c000
038000
038000
038000
038000
070000
070000
060000
040000
000000
000000
000000
ENDCHAR
STARTCHAR c2
ENCODING 194
SWIDTH 17 0
DWIDTH 17 0
BBX 17 35 0 -1
BITMAP
000000
000000
000000
000000
000000
000400
020600
030700
418780
618700
31c700
31c700
38c700
188700
180e00
100e00
000e00
001c00
001c00
001800
003800
003000
007000
006000
00c000
01c000
018000
030000
060000
040000
000000
000000
000000
000000
000000
ENDCHAR
STARTCHAR c3
ENCODING 195
SWIDTH 17 0
DWIDTH 17 0
BBX 17 35 0 -1
BITMAP
000000
000000
000000
000000
000000
001000
107800
1ffc00
0ff000
000000
000000
000000
000600
40ff00
7fff00
3fc000
00e000
00f000
00e000
00e000
00e000
00e000
01c000
01c000
01c000
038000
038000
030000
070000
060000
040000
000000
000000
000000
000000
ENDCHAR
STARTCHAR c4
ENCODING 196
SWIDTH 17 0
DWIDTH 17 0
BBX 17 35 0 -1
BITMAP
000000
000000
000000
000000
000000
070000
03c000
03c000
038000
038000
038000
038000
038000
038000
03c000
03f000
03b800
039c00
039e00
038e00
038600
038000
038000
038000
038000
038000
038000
038000
038000
038000
018000
000000
000000
000000
000000
ENDCHAR
STARTCHAR c5
ENCODING 197
SWIDTH 17 0
DWIDTH 17 0
BBX 17 35 0 -1
BITMAP
000000
000000
000000
000000
030000
01c000
01e000
01e000
01c000
01c000
01c000
01cc00
41ff00
7fff00
3fe000
19c000
01c000
01c000
01c000
01c000
01c000
038000
038000
038000
030000
070000
070000
060000
0e0000
0c0000
080000
000000
000000
000000
000000
ENDCHAR
STARTCHAR c6
ENCODING 198
SWIDTH 17 0
DWIDTH 17 0
BBX 17 35 0 -1
BITMAP
000000
000000
000000
000000
000000
000000
000000
000000
000000
000c00
307e00
3ffe00
1fe000
0c0000
000000
000000
000000
000000
000000
000000
000000
000600
607f80
7fff80
3fc300
1c0000
000000
000000
000000
000000
000000
000000
000000
000000
000000
ENDCHAR
STARTCHAR c7
ENCODING 199
SWIDTH 17 0
DWIDTH 17 0
BBX 17 35 0 -1
BITMAP
000000
000000
000000
000000
000000
000400
207e00
3fff00
1f8f00
0c0e00
000e00
000e00
001c00
001c00
181c00
0e3800
073800
03f800
01f000
00f000
01f800
01fc00
039e00
078e00
070e00
0e0600
1c0000
380000
300000
600000
400000
000000
000000
000000
000000
ENDCHAR
STARTCHAR c8
ENCODING 200
SWIDTH 17 0
DWIDTH 17 0
BBX 17 35 0 -1
BITMAP
000000
000000
000000
060000
038000
01c000
00e000
00c000
000000
000800
30fc00
3ffe00
1f1e00
081c00
003800
007000
00e000
01c000
03f000
07dc00
0fce00
1dcf00
31c700
61c300
01c000
01c000
01c000
01c000
01c000
01c000
018000
000000
000000
000000
000000
ENDCHAR
STARTCHAR c9
ENCODING 201
SWIDTH 17 0
DWIDTH 17 0
BBX 17 35 0 -1
BITMAP
000000
000000
000000
000000
000000
001c00
000e00
000f00
000e00
000e00
001e00
001c00
001c00
003c00
003800
003800
007000
007000
00e000
00e000
01c000
01c000
038000
038000
070000
0e0000
0c0000
180000
300000
600000
000000
000000
000000
000000
000000
ENDCHAR
STARTCHAR ca
ENCODING 202
SWIDTH 17 0
DWIDTH 17 0
BBX 17 35 0 -1
BITMAP
000000
000000
000000
000000
000000
000000
000000
000000
000000
0c2000
063000
071800
079800
071c00
070c00
070e00
0e0e00
0e0e00
0e0700
0c0700
1c0700
1c0380
180380
380380
300380
300380
600180
400100
000000
000000
000000
000000
000000
000000
000000
ENDCHAR
STARTCHAR cb
ENCODING 203
SWIDTH 17 0
DWIDTH 17 0
BBX 17 35 0 -1
BITMAP
000000
000000
000000
000000
000000
300000
1c0000
1e0000
1e0000
1c0000
1c0000
1c0800
1c1c00
1c3e00
1c7800
1de000
1f8000
1e0000
1c0000
1c0000
1c0000
1c0000
1c0000
1c0000
1c0000
1c0e00
0e3f00
0ffe00
03f800
000000
000000
000000
000000
000000
000000
ENDCHAR
STARTCHAR cc
ENCODING 204
SWIDTH 17 0
DWIDTH 17 0
BBX 17 35 0 -1
BITMAP
000000
000000
000000
000000
000000
000000
000000
000200
207f00
3fff80
1f8700
0c0700
000700
000700
000e00
000e00
000e00
001c00
001c00
003800
003800
007000
007000
00e000
00c000
01c000
038000
030000
060000
040000
000000
000000
000000
000000
000000
ENDCHAR
STARTCHAR cd
ENCODING 205
SWIDTH 17 0
DWIDTH 17 0
BBX 17 35 0 -1
BITMAP
000000
000000
000000
000000
000000
000000
000000
000000
000000
000000
070000
070000
0f8000
0dc000
1cc000
18e000
587000
787000
703800
703c00
201c00
000e00
000f00
000700
000780
000380
000300
000000
000000
000000
000000
000000
000000
000000
000000
ENDCHAR
STARTCHAR ce
ENCODING 206
SWIDTH 17 0
DWIDTH 17 0
BBX 17 35 0 -1
BITMAP
000000
000000
000000
000000
038000
01c000
01e000
01c000
01c000
01c000
01cc00
41fe00
7fff00
3fc200
19c000
018000
018000
019000
319800
398c00
398c00
318e00
318600
318700
718700
618700
618200
4dc000
07c000
03c000
018000
000000
000000
000000
000000
ENDCHAR
STARTCHAR cf
ENCODING 207
SWIDTH 17 0
DWIDTH 17 0
BBX 17 35 0 -1
BITMAP
000000
000000
000000
000000
000000
000000
000000
000000
000200
407f00
7fff80
3fc380
180700
000700
000e00
000e00
001c00
0c1c00
063800
073000
037000
03e000
01c000
01c000
00e000
00e000
00f000
007000
006000
000000
000000
000000
000000
000000
000000
ENDCHAR
STARTCHAR d0
ENCODING 208
SWIDTH 17 0
DWIDTH 17 0
BBX 17 35 0 -1
BITMAP
000000
000000
000000
000000
000000
0c0000
070000
03e000
01f800
007c00
003c00
000800
000000
080000
0c0000
078000
03e000
00f800
007c00
001c00
000000
000000
080000
0c0000
078000
03e000
01f800
007c00
001e00
000e00
000000
000000
000000
000000
000000
ENDCHAR
STARTCHAR d1
ENCODING 209
SWIDTH 17 0
DWIDTH 17 0
BBX 17 35 0 -1
BITMAP
000000
000000
000000
000000
000000
030000
018000
01c000
01e000
01e000
01c000
018000
018000
018000
030000
030000
030000
031000
061800
061800
060c00
060c00
060e00
0c0600
0c0f00
4c7f00
7ff780
3f8380
3c0380
100300
000000
000000
000000
000000
000000
ENDCHAR
STARTCHAR d2
ENCODING 210
SWIDTH 17 0
DWIDTH 17 0
BBX 17 35 0 -1
BITMAP
000000
000000
000000
000000
001800
000c00
000e00
000f00
000e00
000e00
001e00
001c00
0c1c00
071c00
03b800
01f800
00f000
007800
007c00
00fe00
00ee00
01c700
01c780
038380
070300
070000
0e0000
0c0000
180000
300000
200000
000000
000000
000000
000000
ENDCHAR
STARTCHAR d3
ENCODING 211
SWIDTH 17 0
DWIDTH 17 0
BBX 17 35 0 -1
BITMAP
000000
000000
000000
000000
000000
000000
000c00
207e00
3fff00
1fc200
09c000
01c000
01c000
01c000
01c400
01c700
41ff80
7fff80
3fc180
19c000
01c000
01c000
01c000
01c000
01c000
01c300
00ff80
00ff80
003e00
000000
000000
000000
000000
000000
000000
ENDCHAR
STARTCHAR d4
ENCODING 212
SWIDTH 17 0
DWIDTH 17 0
BBX 17 35 0 -1
BITMAP
000000
000000
000000
000000
000000
1c0000
0e0000
0e0000
0e0000
070600
073f00
03ff80
47e780
7f8700
3f8e00
138c00
01d800
01d000
01c000
01c000
00e000
00e000
00e000
00e000
007000
007000
007000
007800
003800
003000
000000
000000
000000
000000
000000
ENDCHAR
STARTCHAR d5
ENCODING 213
SWIDTH 17 0
DWIDTH 17 0
BBX 17 35 0 -1
BITMAP
000000
000000
000000
000000
000000
000000
000000
000000
000000
000800
107e00
1ffe00
0f9c00
061c00
001c00
003800
003800
003800
003800
007000
007000
007000
006300
71ff80
7fff80
3e0180
000000
000000
000000
000000
000000
000000
000000
000000
000000
ENDCHAR
STARTCHAR d6
ENCODING 214
SWIDTH 17 0
DWIDTH 17 0
BBX 17 35 0 -1
BITMAP
000000
000000
000000
000000
000000
000000
000000
000400
207e00
3fff00
1f8780
080700
000700
000700
000700
000700
20ff00
3ffe00
1f0e00
080e00
000e00
000e00
000e00
000e00
203e00
3ffe00
1fc700
0c0000
000000
000000
000000
000000
000000
000000
000000
ENDCHAR
STARTCHAR d7
ENCODING 215
SWIDTH 17 0
DWIDTH 17 0
BBX 17 35 0 -1
BITMAP
000000
000000
000000
000000
000000
203000
3ffc00
1ffc00
080000
000000
000000
000400
40fe00
7fff00
3f0f00
180e00
000e00
000e00
001c00
001c00
003800
003800
007000
007000
00e000
01e000
01c000
038000
030000
060000
0c0000
000000
000000
000000
000000
ENDCHAR
STARTCHAR d8
ENCODING 216
SWIDTH 17 0
DWIDTH 17 0
BBX 17 35 0 -1
BITMAP
000000
000000
000000
000000
003800
201c00
381e00
1c1c00
1c1c00
1c1c00
181c00
181c00
181c00
181c00
181c00
181c00
181c00
1c1c00
1c1c00
1c1c00
181c00
001c00
001c00
003800
003800
003800
007000
007000
00e000
00c000
018000
010000
000000
000000
000000
ENDCHAR
STARTCHAR d9
ENCODING 217
SWIDTH 17 0
DWIDTH 17 0
BBX 17 35 0 -1
BITMAP
000000
000000
000000
000000
000000
000000
018000
00e000
30f000
1c7800
1e7000
1e7000
1c6000
1c6000
1c6080
1c6080
1c6180
1c6180
1c6180
1c6380
1c6300
386700
386600
387e00
387c00
307c00
70f800
60f000
606000
402000
000000
000000
000000
000000
000000
ENDCHAR
STARTCHAR da
ENCODING 218
SWIDTH 17 0
DWIDTH 17 0
BBX 17 35 0 -1
BITMAP
000000
000000
000000
000000
000000
000000
180000
0e0000
0f0000
0e0000
0e0000
0e0000
0e0100
0e0100
0e0300
0e0300
0e0600
0e0600
0e0e00
0e0c00
0c1c00
0c3800
0c3800
0c7000
0cf000
0fe000
0fc000
1f8000
0f0000
060000
000000
000000
000000
000000
000000
ENDCHAR
STARTCHAR db
ENCODING 219
SWIDTH 17 0
DWIDTH 17 0
BBX 17 35 0 -1
BITMAP
000000
000000
000000
000000
000000
000000
000000
000000
200200
307f00
1fff80
1f8700
1c0700
1c0700
1c0700
1c0e00
1c0e00
1c0e00
0e0e00
0e0e00
0e0c00
0e1c00
0e1c00
0e1c00
0efe00
1ffe00
0f0000
000000
000000
000000
000000
000000
000000
000000
000000
ENDCHAR
STARTCHAR dc
ENCODING 220
SWIDTH 17 0
DWIDTH 17 0
BBX 17 35 0 -1
BITMAP
000000
000000
000000
000000
000000
000200
207f00
3fff80
1f8780
1c0700
1c0700
1c0700
1c0700
1c0700
1c0700
1c0e00
1c0e00
1c0e00
080e00
001c00
001c00
003800
003800
007000
007000
00e000
00e000
01c000
018000
030000
020000
000000
000000
000000
000000
ENDCHAR
STARTCHAR dd
ENCODING 221
SWIDTH 17 0
DWIDTH 17 0
BBX 17 35 0 -1
BITMAP
000000
000000
000000
000000
000000
000000
000000
000000
600000
3c0080
1e0180
0f0180
060380
000300
000700
000700
000e00
000e00
001c00
001c00
003800
003800
007000
00f000
00e000
21c000
3bc000
1f8000
0f0000
0e0000
040000
000000
000000
000000
000000
ENDCHAR
STARTCHAR de
ENCODING 222
SWIDTH 17 0
DWIDTH 17 0
BBX 17 35 0 -1
BITMAP
000000
000000
0c0000
070000
638000
3b8000
1d8000
1c0000
0c0000
000000
000000
000000
000000
000000
000000
000000
000000
000000
000000
000000
000000
000000
000000
000000
000000
000000
000000
000000
000000
000000
000000
000000
000000
000000
000000
ENDCHAR
STARTCHAR df
ENCODING 223
SWIDTH 17 0
DWIDTH 17 0
BBX 17 35 0 -1
BITMAP
000000
000000
1e0000
3f0000
738000
618000
618000
738000
3f0000
1e0000
000000
000000
000000
000000
000000
000000
000000
000000
000000
000000
000000
000000
000000
000000
000000
000000
000000
000000
000000
000000
000000
000000
000000
000000
000000
ENDCHAR
ENDFONT
